<svg width="60" height="60" viewBox="0 0 60 60" fill="none" xmlns="http://www.w3.org/2000/svg">
<path d="M22.0664 42.7617C22.9453 43.2656 24.0352 43.3477 24.9023 42.7148L41.7773 32.4023C42.6094 31.8867 43.125 30.9844 43.125 30C43.125 29.0156 42.6094 28.1133 41.7773 27.5977L24.9023 17.2852C24.0352 16.7578 22.9453 16.7344 22.0664 17.2383C21.1758 17.7305 20.625 18.668 20.625 19.6875V40.418C20.625 41.332 21.1758 42.2695 22.0664 42.7617ZM60 30C60 13.4297 46.5703 0 30 0C13.4297 0 0 13.4297 0 30C0 46.5703 13.4297 60 30 60C46.5703 60 60 46.5703 60 30ZM30 54.375C16.5352 54.375 5.625 43.4648 5.625 30C5.625 16.5352 16.5352 5.625 30 5.625C43.4648 5.625 54.375 16.5352 54.375 30C54.375 43.4648 43.4648 54.375 30 54.375Z" fill="#111111"/>
</svg>
